<svg version="1.1" xmlns="http://www.w3.org/2000/svg" viewBox="-182.27199096679686 -3092.992163085937 4935.67978515625 3404.2881713867187"><desc>Created with Snap</desc><defs></defs><g><g transform="matrix(19.0976,0,0,19.0976,1330.6878,-2881.2802)"><path d="M69.558,56.284c0,0-1.228,0.945-3.048,1.178v-9.945c1.028,0.033,2.062,0.131,3.045,0.295L69.558,56.284z M69.486,10.757  H66.51v34.2c1.519,0.101,2.977,0.43,2.977,0.43V10.757z M64.893,10.757h-2.978v34.63c0,0,1.455-0.331,2.978-0.432V10.757z   M71.323,48.757v7.706c5.746,2.393,9.809,8.231,9.809,15.062c0,8.96-6.986,16.225-15.602,16.225c-5.006,0-9.459-2.457-12.312-6.27  c-1.516,1.905-3.297,3.583-5.286,4.972C52.154,91.673,58.546,95,65.702,95c12.713,0,23.02-10.511,23.02-23.476  C88.722,60.538,81.32,51.316,71.323,48.757z M64.893,57.462v-9.938c-1.024,0.041-2.044,0.153-3.026,0.324l0.07,8.436  C62.968,56.995,63.972,57.339,64.893,57.462z M59.928,48.793c-2.033,0.537-3.954,1.351-5.728,2.396  c1.368,1.977,2.457,4.157,3.223,6.479c0.791-0.503,1.627-0.935,2.505-1.286V48.793z M43.197,76.479  c2.817-2.664,4.589-6.514,4.589-10.786c0-2.393-0.55-4.675-1.55-6.696c-2.249,3.626-3.556,7.919-3.556,12.528  C42.681,73.226,42.86,74.881,43.197,76.479z M39.922,43.003v7.702c5.747,2.393,9.806,8.234,9.806,15.064  c0,8.96-6.983,16.225-15.599,16.225c-8.616,0-15.6-7.265-15.6-16.225c0-6.905,4.15-12.799,9.997-15.142v-7.59  c-9.921,2.613-17.248,11.8-17.248,22.731c0,12.965,10.307,23.476,23.021,23.476c12.716,0,23.022-10.511,23.022-23.476  C57.321,54.783,49.918,45.56,39.922,43.003z M35.108,39.204c1.518,0.099,2.978,0.426,2.978,0.426V5h-2.978V39.204z M35.108,51.707  c1.82-0.234,3.048-1.178,3.048-1.178l-0.005-8.473c-0.983-0.164-2.015-0.262-3.043-0.295V51.707z M33.491,5h-2.978v34.63  c0,0,1.455-0.332,2.978-0.429V5z M33.491,41.769c-1.024,0.041-2.044,0.153-3.024,0.326l0.068,8.435  c1.031,0.712,2.034,1.055,2.956,1.178V41.769z" fill="#e94b3c" style=""></path><desc>Created with Snap</desc><defs></defs></g><g><g transform="matrix(1.024,0,0,-1.024,0,0)"><path d="M590 654L173 654L173 355L546 355L546 309L173 309L173 0L122 0L122 700L590 700L590 654ZM737 0L737 522L787 522L787 0L737 0ZM762 649Q745 649 733 660Q721 672 721 689Q721 706 733 718Q745 730 762 730Q779 730 791 718Q803 707 803 690Q803 673 791 661Q779 649 762 649ZM1236 68L1257 33Q1238 15 1209 5Q1181 -4 1150 -4Q1082 -4 1045 33Q1008 71 1008 138L1008 479L912 479L912 522L1008 522L1008 636L1058 636L1058 522L1224 522L1224 479L1058 479L1058 143Q1058 92 1082 65Q1107 39 1155 39Q1204 39 1236 68ZM1352 246L1352 291L1609 291L1609 246L1352 246ZM1927 0L1927 654L1675 654L1675 700L2230 700L2230 654L1978 654L1978 0L1927 0ZM2388 408Q2412 465 2463 495Q2514 526 2587 526L2587 477L2575 478Q2488 478 2439 423Q2390 369 2390 272L2390 0L2340 0L2340 522L2388 522L2388 408ZM2910 526Q3007 526 3059 476Q3111 427 3111 331L3111 0L3063 0L3063 93Q3038 47 2990 21Q2942 -4 2875 -4Q2788 -4 2737 37Q2687 78 2687 145Q2687 210 2733 250Q2780 291 2882 291L3061 291L3061 333Q3061 406 3021 444Q2982 482 2906 482Q2854 482 2806 464Q2759 446 2726 416L2701 452Q2740 487 2795 506Q2850 526 2910 526ZM2882 37Q2947 37 2992 67Q3038 97 3061 154L3061 252L2883 252Q2806 252 2771 224Q2737 196 2737 147Q2737 96 2775 66Q2813 37 2882 37ZM3524 -4Q3448 -4 3388 30Q3328 64 3294 124Q3260 185 3260 261Q3260 338 3294 398Q3328 459 3388 492Q3448 526 3524 526Q3587 526 3638 501Q3690 477 3722 430L3685 403Q3657 442 3615 461Q3574 481 3524 481Q3463 481 3414 453Q3366 426 3338 376Q3311 326 3311 261Q3311 196 3338 146Q3366 96 3414 68Q3463 41 3524 41Q3574 41 3615 60Q3657 80 3685 119L3722 92Q3690 45 3638 20Q3587 -4 3524 -4ZM4280 0L4058 279L3922 155L3922 0L3872 0L3872 742L3922 742L3922 217L4256 522L4320 522L4095 311L4342 0L4280 0Z" fill="#2d2926" style=""></path></g></g></g></svg>